<svg width="1500" height="509" viewBox="0 0 1500 509" fill="none" xmlns="http://www.w3.org/2000/svg">
<path d="M957 87V86.2456H956.558L956.342 86.6314L957 87ZM1158.53 87.5334C1158.83 87.2388 1158.83 86.7612 1158.53 86.4666L1153.73 81.6658C1153.44 81.3712 1152.96 81.3712 1152.67 81.6658C1152.37 81.9604 1152.37 82.438 1152.67 82.7326L1156.93 87L1152.67 91.2674C1152.37 91.562 1152.37 92.0396 1152.67 92.3342C1152.96 92.6288 1153.44 92.6288 1153.73 92.3342L1158.53 87.5334ZM907.658 176.666L957.658 87.3686L956.342 86.6314L906.342 175.929L907.658 176.666ZM957 87.7544H1158V86.2456H957V87.7544Z" fill="white"/>
<path d="M940 474.297V475.052H939.558L939.342 474.666L940 474.297ZM1154.53 473.764C1154.83 474.059 1154.83 474.536 1154.53 474.831L1149.73 479.632C1149.44 479.926 1148.96 479.926 1148.67 479.632C1148.37 479.337 1148.37 478.859 1148.67 478.565L1152.93 474.297L1148.67 470.03C1148.37 469.735 1148.37 469.258 1148.67 468.963C1148.96 468.669 1149.44 468.669 1149.73 468.963L1154.53 473.764ZM890.658 384.631L940.658 473.929L939.342 474.666L889.342 385.368L890.658 384.631ZM940 473.543H1154V475.052H940V473.543Z" fill="white"/>
<path d="M272.467 279.467C272.172 279.761 272.172 280.239 272.467 280.533L277.267 285.334C277.562 285.629 278.04 285.629 278.334 285.334C278.629 285.04 278.629 284.562 278.334 284.267L274.067 280L278.334 275.733C278.629 275.438 278.629 274.96 278.334 274.666C278.04 274.371 277.562 274.371 277.267 274.666L272.467 279.467ZM517.786 279.246H273V280.754H517.786V279.246Z" fill="white"/>
<path d="M673.024 12L673.738 11.7576L673.564 11.2456H673.024V12ZM468.967 11.4666C468.672 11.7612 468.672 12.2388 468.967 12.5334L473.767 17.3342C474.062 17.6288 474.54 17.6288 474.834 17.3342C475.129 17.0396 475.129 16.562 474.834 16.2674L470.567 12L474.834 7.73262C475.129 7.43802 475.129 6.96037 474.834 6.66577C474.54 6.37117 474.062 6.37117 473.767 6.66577L468.967 11.4666ZM695.238 75.125L673.738 11.7576L672.309 12.2424L693.809 75.6098L695.238 75.125ZM673.024 11.2456H469.5V12.7544H673.024V11.2456Z" fill="white"/>
<path d="M783.5 12L782.785 11.7576L782.959 11.2456H783.5V12ZM987.557 11.4666C987.851 11.7612 987.851 12.2388 987.557 12.5334L982.756 17.3342C982.461 17.6288 981.984 17.6288 981.689 17.3342C981.395 17.0396 981.395 16.562 981.689 16.2674L985.957 12L981.689 7.73262C981.395 7.43802 981.395 6.96037 981.689 6.66577C981.984 6.37117 982.461 6.37117 982.756 6.66577L987.557 11.4666ZM761.286 75.125L782.785 11.7576L784.214 12.2424L762.714 75.6098L761.286 75.125ZM783.5 11.2456H987.023V12.7544H783.5V11.2456Z" fill="white"/>
<path d="M1177.6 94V79.4545H1182.78C1183.91 79.4545 1184.85 79.6605 1185.6 80.0724C1186.34 80.4844 1186.89 81.0478 1187.26 81.7628C1187.63 82.473 1187.82 83.2732 1187.82 84.1634C1187.82 85.0582 1187.63 85.8632 1187.26 86.5781C1186.89 87.2884 1186.33 87.8518 1185.58 88.2685C1184.84 88.6804 1183.9 88.8864 1182.78 88.8864H1179.21V87.0256H1182.58C1183.29 87.0256 1183.87 86.9025 1184.32 86.6562C1184.76 86.4053 1185.09 86.0644 1185.3 85.6335C1185.51 85.2027 1185.61 84.7126 1185.61 84.1634C1185.61 83.6141 1185.51 83.1264 1185.3 82.7003C1185.09 82.2741 1184.76 81.9403 1184.31 81.6989C1183.86 81.4574 1183.28 81.3366 1182.55 81.3366H1179.79V94H1177.6ZM1190.39 94V79.4545H1195.58C1196.7 79.4545 1197.64 79.6487 1198.38 80.0369C1199.13 80.4252 1199.69 80.9626 1200.06 81.6491C1200.43 82.331 1200.61 83.1193 1200.61 84.0142C1200.61 84.9044 1200.42 85.688 1200.05 86.3651C1199.68 87.0374 1199.12 87.5606 1198.37 87.9347C1197.63 88.3087 1196.7 88.4957 1195.57 88.4957H1191.64V86.6065H1195.37C1196.08 86.6065 1196.66 86.5047 1197.1 86.3011C1197.55 86.0975 1197.88 85.8016 1198.09 85.4134C1198.3 85.0251 1198.4 84.5587 1198.4 84.0142C1198.4 83.465 1198.3 82.9891 1198.08 82.5866C1197.87 82.1842 1197.55 81.8764 1197.1 81.6634C1196.65 81.4455 1196.07 81.3366 1195.34 81.3366H1192.59V94H1190.39ZM1197.57 87.4375L1201.17 94H1198.67L1195.14 87.4375H1197.57ZM1203.28 94V79.4545H1212.4V81.3438H1205.48V85.7756H1211.93V87.6577H1205.48V92.1108H1212.49V94H1203.28ZM1221.59 85.804V87.6506H1215.14V85.804H1221.59ZM1224.59 94V79.4545H1226.78V92.1108H1233.38V94H1224.59ZM1237.85 94H1235.52L1240.75 79.4545H1243.29L1248.52 94H1246.2L1242.08 82.0966H1241.97L1237.85 94ZM1238.24 88.304H1245.8V90.1506H1238.24V88.304ZM1259.98 79.4545H1262.18V89.0213C1262.18 90.0393 1261.94 90.9413 1261.46 91.7273C1260.99 92.5085 1260.31 93.1241 1259.45 93.5739C1258.58 94.0189 1257.56 94.2415 1256.4 94.2415C1255.24 94.2415 1254.23 94.0189 1253.36 93.5739C1252.49 93.1241 1251.82 92.5085 1251.34 91.7273C1250.86 90.9413 1250.63 90.0393 1250.63 89.0213V79.4545H1252.82V88.8438C1252.82 89.5019 1252.96 90.0866 1253.25 90.598C1253.55 91.1094 1253.96 91.5118 1254.5 91.8054C1255.03 92.0942 1255.67 92.2386 1256.4 92.2386C1257.14 92.2386 1257.77 92.0942 1258.31 91.8054C1258.85 91.5118 1259.26 91.1094 1259.55 90.598C1259.83 90.0866 1259.98 89.5019 1259.98 88.8438V79.4545ZM1277.11 79.4545V94H1275.09L1267.7 83.3324H1267.57V94H1265.37V79.4545H1267.4L1274.8 90.1364H1274.94V79.4545H1277.11ZM1292.39 84.1847H1290.18C1290.09 83.7112 1289.93 83.2945 1289.7 82.9347C1289.47 82.5748 1289.19 82.2694 1288.85 82.0185C1288.51 81.7675 1288.14 81.5781 1287.72 81.4503C1287.31 81.3224 1286.87 81.2585 1286.41 81.2585C1285.57 81.2585 1284.82 81.4692 1284.16 81.8906C1283.5 82.312 1282.98 82.9299 1282.59 83.7443C1282.21 84.5587 1282.02 85.553 1282.02 86.7273C1282.02 87.911 1282.21 88.91 1282.59 89.7244C1282.98 90.5388 1283.5 91.1544 1284.16 91.571C1284.83 91.9877 1285.57 92.196 1286.4 92.196C1286.86 92.196 1287.29 92.1345 1287.71 92.0114C1288.12 91.8835 1288.5 91.6965 1288.84 91.4503C1289.17 91.2041 1289.46 90.9034 1289.69 90.5483C1289.92 90.1884 1290.09 89.7765 1290.18 89.3125L1292.39 89.3196C1292.28 90.0346 1292.05 90.6927 1291.7 91.294C1291.37 91.8906 1290.94 92.4067 1290.41 92.8423C1289.88 93.2732 1289.28 93.607 1288.6 93.8438C1287.92 94.0805 1287.19 94.1989 1286.39 94.1989C1285.13 94.1989 1284 93.9006 1283.02 93.304C1282.03 92.7027 1281.26 91.8433 1280.69 90.7259C1280.13 89.6084 1279.84 88.2756 1279.84 86.7273C1279.84 85.1742 1280.13 83.8414 1280.7 82.7287C1281.26 81.6113 1282.04 80.7543 1283.03 80.1577C1284.01 79.5563 1285.13 79.2557 1286.39 79.2557C1287.16 79.2557 1287.88 79.367 1288.54 79.5895C1289.22 79.8073 1289.82 80.1293 1290.36 80.5554C1290.89 80.9768 1291.33 81.4929 1291.68 82.1037C1292.03 82.7098 1292.27 83.4034 1292.39 84.1847ZM1295.02 94V79.4545H1297.21V85.7756H1304.47V79.4545H1306.67V94H1304.47V87.6577H1297.21V94H1295.02ZM1315.16 94V79.4545H1320.34C1321.47 79.4545 1322.41 79.6605 1323.15 80.0724C1323.9 80.4844 1324.45 81.0478 1324.82 81.7628C1325.19 82.473 1325.38 83.2732 1325.38 84.1634C1325.38 85.0582 1325.19 85.8632 1324.82 86.5781C1324.45 87.2884 1323.89 87.8518 1323.14 88.2685C1322.4 88.6804 1321.46 88.8864 1320.33 88.8864H1316.77V87.0256H1320.14C1320.85 87.0256 1321.43 86.9025 1321.88 86.6562C1322.32 86.4053 1322.65 86.0644 1322.86 85.6335C1323.06 85.2027 1323.17 84.7126 1323.17 84.1634C1323.17 83.6141 1323.06 83.1264 1322.86 82.7003C1322.65 82.2741 1322.32 81.9403 1321.87 81.6989C1321.42 81.4574 1320.84 81.3366 1320.11 81.3366H1317.35V94H1315.16ZM1327.95 94V79.4545H1333.13C1334.26 79.4545 1335.2 79.6487 1335.94 80.0369C1336.69 80.4252 1337.25 80.9626 1337.62 81.6491C1337.99 82.331 1338.17 83.1193 1338.17 84.0142C1338.17 84.9044 1337.98 85.688 1337.61 86.3651C1337.24 87.0374 1336.68 87.5606 1335.93 87.9347C1335.19 88.3087 1334.25 88.4957 1333.13 88.4957H1329.2V86.6065H1332.93C1333.64 86.6065 1334.22 86.5047 1334.66 86.3011C1335.11 86.0975 1335.44 85.8016 1335.65 85.4134C1335.86 85.0251 1335.96 84.5587 1335.96 84.0142C1335.96 83.465 1335.85 82.9891 1335.64 82.5866C1335.43 82.1842 1335.1 81.8764 1334.65 81.6634C1334.21 81.4455 1333.62 81.3366 1332.9 81.3366H1330.14V94H1327.95ZM1335.13 87.4375L1338.72 94H1336.22L1332.7 87.4375H1335.13ZM1343.03 79.4545V94H1340.84V79.4545H1343.03ZM1347.5 79.4545L1351.55 91.3011H1351.71L1355.76 79.4545H1358.13L1352.9 94H1350.36L1345.13 79.4545H1347.5ZM1359.98 94H1357.65L1362.88 79.4545H1365.42L1370.65 94H1368.32L1364.21 82.0966H1364.1L1359.98 94ZM1360.37 88.304H1367.93V90.1506H1360.37V88.304ZM1370.32 81.3438V79.4545H1381.58V81.3438H1377.04V94H1374.85V81.3438H1370.32ZM1384.06 94V79.4545H1393.18V81.3438H1386.26V85.7756H1392.71V87.6577H1386.26V92.1108H1393.27V94H1384.06ZM1409.34 83.2756C1409.26 82.6032 1408.95 82.0824 1408.4 81.7131C1407.85 81.339 1407.16 81.152 1406.33 81.152C1405.73 81.152 1405.22 81.2467 1404.78 81.4361C1404.34 81.6207 1404.01 81.8764 1403.76 82.2031C1403.53 82.5251 1403.41 82.892 1403.41 83.304C1403.41 83.6496 1403.49 83.9479 1403.65 84.1989C1403.82 84.4498 1404.03 84.6605 1404.3 84.831C1404.57 84.9967 1404.86 85.1364 1405.16 85.25C1405.47 85.3589 1405.77 85.4489 1406.05 85.5199L1407.47 85.8892C1407.94 86.0028 1408.41 86.1567 1408.9 86.3509C1409.39 86.545 1409.84 86.8007 1410.26 87.1179C1410.67 87.4351 1411.01 87.8281 1411.26 88.2969C1411.52 88.7656 1411.66 89.3267 1411.66 89.9801C1411.66 90.804 1411.44 91.5355 1411.02 92.1747C1410.59 92.8139 1409.98 93.3182 1409.18 93.6875C1408.38 94.0568 1407.41 94.2415 1406.27 94.2415C1405.18 94.2415 1404.24 94.0687 1403.44 93.723C1402.65 93.3774 1402.03 92.8873 1401.58 92.2528C1401.13 91.6136 1400.88 90.8561 1400.83 89.9801H1403.03C1403.08 90.5057 1403.25 90.9437 1403.54 91.294C1403.85 91.6397 1404.23 91.8977 1404.7 92.0682C1405.18 92.2339 1405.69 92.3168 1406.26 92.3168C1406.88 92.3168 1407.43 92.2197 1407.91 92.0256C1408.4 91.8267 1408.78 91.5521 1409.06 91.2017C1409.34 90.8466 1409.48 90.4323 1409.48 89.9588C1409.48 89.5279 1409.36 89.1752 1409.11 88.9006C1408.87 88.6259 1408.54 88.3987 1408.13 88.2188C1407.71 88.0388 1407.25 87.8802 1406.73 87.7429L1405.01 87.2741C1403.84 86.9569 1402.92 86.4905 1402.24 85.875C1401.56 85.2595 1401.22 84.4451 1401.22 83.4318C1401.22 82.5937 1401.45 81.8622 1401.9 81.2372C1402.36 80.6122 1402.97 80.1269 1403.75 79.7812C1404.53 79.4309 1405.4 79.2557 1406.38 79.2557C1407.36 79.2557 1408.23 79.4285 1408.98 79.7741C1409.74 80.1198 1410.34 80.5956 1410.77 81.2017C1411.21 81.803 1411.44 82.4943 1411.46 83.2756H1409.34ZM1415.39 94H1413.06L1418.29 79.4545H1420.83L1426.06 94H1423.73L1419.62 82.0966H1419.51L1415.39 94ZM1415.78 88.304H1423.34V90.1506H1415.78V88.304ZM1428.16 94V79.4545H1430.36V92.1108H1436.95V94H1428.16ZM1439.45 94V79.4545H1448.57V81.3438H1441.65V85.7756H1448.1V87.6577H1441.65V92.1108H1448.66V94H1439.45ZM1452.73 92.196C1452.34 92.196 1452.01 92.0587 1451.73 91.7841C1451.45 91.5047 1451.31 91.1686 1451.31 90.7756C1451.31 90.3873 1451.45 90.0559 1451.73 89.7812C1452.01 89.5019 1452.34 89.3622 1452.73 89.3622C1453.12 89.3622 1453.46 89.5019 1453.73 89.7812C1454.01 90.0559 1454.15 90.3873 1454.15 90.7756C1454.15 91.036 1454.09 91.2751 1453.95 91.4929C1453.83 91.706 1453.66 91.8764 1453.44 92.0043C1453.23 92.1321 1452.99 92.196 1452.73 92.196ZM1452.73 84.9091C1452.34 84.9091 1452.01 84.7718 1451.73 84.4972C1451.45 84.2178 1451.31 83.8816 1451.31 83.4886C1451.31 83.1004 1451.45 82.7689 1451.73 82.4943C1452.01 82.215 1452.34 82.0753 1452.73 82.0753C1453.12 82.0753 1453.46 82.215 1453.73 82.4943C1454.01 82.7689 1454.15 83.1004 1454.15 83.4886C1454.15 83.7491 1454.09 83.9882 1453.95 84.206C1453.83 84.419 1453.66 84.5895 1453.44 84.7173C1453.23 84.8452 1452.99 84.9091 1452.73 84.9091ZM1467.78 79.4545V94H1465.58V81.6562H1465.49L1462.01 83.929V81.8267L1465.64 79.4545H1467.78ZM1476.78 94.2415C1475.66 94.2367 1474.7 93.9408 1473.9 93.3537C1473.11 92.7666 1472.5 91.9119 1472.08 90.7898C1471.66 89.6676 1471.45 88.3158 1471.45 86.7344C1471.45 85.1577 1471.66 83.8106 1472.08 82.6932C1472.5 81.5758 1473.11 80.7235 1473.91 80.1364C1474.71 79.5492 1475.67 79.2557 1476.78 79.2557C1477.89 79.2557 1478.85 79.5516 1479.64 80.1435C1480.44 80.7306 1481.05 81.5829 1481.47 82.7003C1481.89 83.813 1482.11 85.1577 1482.11 86.7344C1482.11 88.3205 1481.9 89.6747 1481.47 90.7969C1481.05 91.9143 1480.44 92.7689 1479.65 93.3608C1478.85 93.9479 1477.9 94.2415 1476.78 94.2415ZM1476.78 92.3452C1477.76 92.3452 1478.53 91.8646 1479.09 90.9034C1479.65 89.9422 1479.93 88.5526 1479.93 86.7344C1479.93 85.527 1479.8 84.5066 1479.54 83.6733C1479.29 82.8352 1478.93 82.2008 1478.46 81.7699C1477.99 81.3343 1477.43 81.1165 1476.78 81.1165C1475.8 81.1165 1475.03 81.5994 1474.47 82.5653C1473.91 83.5312 1473.63 84.9209 1473.63 86.7344C1473.63 87.9465 1473.75 88.9716 1474 89.8097C1474.26 90.643 1474.62 91.2751 1475.09 91.706C1475.56 92.1321 1476.12 92.3452 1476.78 92.3452ZM1492.22 91.2727V90.5057C1492.22 89.9564 1492.33 89.4545 1492.56 89C1492.79 88.5407 1493.13 88.1738 1493.57 87.8991C1494.01 87.6198 1494.55 87.4801 1495.18 87.4801C1495.82 87.4801 1496.36 87.6174 1496.8 87.892C1497.23 88.1667 1497.56 88.5336 1497.79 88.9929C1498.01 89.4522 1498.13 89.9564 1498.13 90.5057V91.2727C1498.13 91.822 1498.01 92.3262 1497.79 92.7855C1497.56 93.2401 1497.23 93.607 1496.78 93.8864C1496.35 94.161 1495.81 94.2983 1495.18 94.2983C1494.54 94.2983 1494 94.161 1493.56 93.8864C1493.12 93.607 1492.79 93.2401 1492.56 92.7855C1492.33 92.3262 1492.22 91.822 1492.22 91.2727ZM1493.87 90.5057V91.2727C1493.87 91.6799 1493.97 92.0492 1494.16 92.3807C1494.36 92.7121 1494.7 92.8778 1495.18 92.8778C1495.66 92.8778 1495.99 92.7121 1496.18 92.3807C1496.37 92.0492 1496.47 91.6799 1496.47 91.2727V90.5057C1496.47 90.0985 1496.37 89.7292 1496.19 89.3977C1496.01 89.0663 1495.67 88.9006 1495.18 88.9006C1494.71 88.9006 1494.37 89.0663 1494.17 89.3977C1493.97 89.7292 1493.87 90.0985 1493.87 90.5057ZM1484.9 82.9489V82.1818C1484.9 81.6326 1485.02 81.1283 1485.24 80.669C1485.48 80.2098 1485.81 79.8428 1486.25 79.5682C1486.7 79.2936 1487.23 79.1562 1487.86 79.1562C1488.51 79.1562 1489.05 79.2936 1489.48 79.5682C1489.92 79.8428 1490.25 80.2098 1490.47 80.669C1490.69 81.1283 1490.8 81.6326 1490.8 82.1818V82.9489C1490.8 83.4981 1490.69 84.0024 1490.46 84.4616C1490.24 84.9162 1489.91 85.2831 1489.47 85.5625C1489.03 85.8371 1488.5 85.9744 1487.86 85.9744C1487.22 85.9744 1486.68 85.8371 1486.24 85.5625C1485.8 85.2831 1485.47 84.9162 1485.24 84.4616C1485.02 84.0024 1484.9 83.4981 1484.9 82.9489ZM1486.56 82.1818V82.9489C1486.56 83.3561 1486.66 83.7254 1486.85 84.0568C1487.04 84.3883 1487.38 84.554 1487.86 84.554C1488.34 84.554 1488.67 84.3883 1488.86 84.0568C1489.05 83.7254 1489.15 83.3561 1489.15 82.9489V82.1818C1489.15 81.7746 1489.06 81.4053 1488.87 81.0739C1488.69 80.7424 1488.35 80.5767 1487.86 80.5767C1487.39 80.5767 1487.05 80.7424 1486.86 81.0739C1486.66 81.4053 1486.56 81.7746 1486.56 82.1818ZM1485.58 94L1495.58 79.4545H1497.27L1487.27 94H1485.58Z" fill="white"/>
<path d="M1018.6 4.45455H1021.26L1025.89 15.7614H1026.06L1030.69 4.45455H1033.36V19H1031.27V8.47443H1031.13L1026.84 18.9787H1025.11L1020.82 8.46733H1020.69V19H1018.6V4.45455ZM1037.78 19H1035.45L1040.68 4.45455H1043.22L1048.45 19H1046.12L1042.01 7.09659H1041.9L1037.78 19ZM1038.17 13.304H1045.72V15.1506H1038.17V13.304ZM1050.55 19V4.45455H1055.74C1056.86 4.45455 1057.8 4.64867 1058.54 5.03693C1059.29 5.42519 1059.85 5.96259 1060.22 6.64915C1060.59 7.33097 1060.77 8.11932 1060.77 9.0142C1060.77 9.90436 1060.58 10.688 1060.21 11.3651C1059.84 12.0374 1059.28 12.5606 1058.53 12.9347C1057.79 13.3087 1056.86 13.4957 1055.73 13.4957H1051.8V11.6065H1055.53C1056.24 11.6065 1056.82 11.5047 1057.26 11.3011C1057.71 11.0975 1058.04 10.8016 1058.25 10.4134C1058.46 10.0251 1058.56 9.55871 1058.56 9.0142C1058.56 8.46496 1058.46 7.98911 1058.24 7.58665C1058.03 7.18419 1057.71 6.87642 1057.26 6.66335C1056.81 6.44555 1056.23 6.33665 1055.5 6.33665H1052.75V19H1050.55ZM1057.73 12.4375L1061.33 19H1058.83L1055.3 12.4375H1057.73ZM1063.44 19V4.45455H1065.64V11.4006H1065.81L1071.91 4.45455H1074.68L1068.81 11.0028L1074.7 19H1072.06L1067.36 12.5014L1065.64 14.4759V19H1063.44ZM1076.72 19V4.45455H1085.84V6.34375H1078.92V10.7756H1085.37V12.6577H1078.92V17.1108H1085.93V19H1076.72ZM1088.06 6.34375V4.45455H1099.31V6.34375H1094.78V19H1092.59V6.34375H1088.06ZM1104 4.45455V19H1101.8V4.45455H1104ZM1118.93 4.45455V19H1116.91L1109.52 8.33239H1109.39V19H1107.19V4.45455H1109.22L1116.62 15.1364H1116.76V4.45455H1118.93ZM1131.98 9.04972C1131.84 8.61884 1131.65 8.23295 1131.42 7.89205C1131.2 7.5464 1130.92 7.25284 1130.61 7.01136C1130.29 6.76515 1129.93 6.57812 1129.52 6.45028C1129.12 6.32244 1128.67 6.25852 1128.19 6.25852C1127.37 6.25852 1126.63 6.46922 1125.98 6.89062C1125.32 7.31203 1124.8 7.92992 1124.41 8.74432C1124.03 9.55398 1123.84 10.5459 1123.84 11.7202C1123.84 12.8991 1124.04 13.8958 1124.42 14.7102C1124.8 15.5246 1125.33 16.1425 1126 16.5639C1126.66 16.9853 1127.42 17.196 1128.28 17.196C1129.07 17.196 1129.76 17.035 1130.34 16.7131C1130.94 16.3911 1131.39 15.9366 1131.71 15.3494C1132.04 14.7576 1132.2 14.0616 1132.2 13.2614L1132.77 13.3679H1128.61V11.5568H1134.33V13.2116C1134.33 14.4332 1134.07 15.4938 1133.55 16.3935C1133.03 17.2884 1132.32 17.9796 1131.4 18.4673C1130.49 18.955 1129.45 19.1989 1128.28 19.1989C1126.96 19.1989 1125.81 18.8958 1124.81 18.2898C1123.82 17.6837 1123.05 16.8243 1122.5 15.7116C1121.94 14.5942 1121.66 13.2685 1121.66 11.7344C1121.66 10.5743 1121.83 9.53267 1122.15 8.60938C1122.47 7.68608 1122.92 6.90246 1123.5 6.25852C1124.09 5.60985 1124.78 5.11506 1125.57 4.77415C1126.37 4.4285 1127.23 4.25568 1128.18 4.25568C1128.96 4.25568 1129.69 4.37169 1130.37 4.60369C1131.05 4.8357 1131.66 5.16477 1132.19 5.59091C1132.73 6.01705 1133.17 6.52367 1133.52 7.1108C1133.87 7.69318 1134.11 8.33949 1134.23 9.04972H1131.98ZM1138.34 17.196C1137.95 17.196 1137.62 17.0587 1137.34 16.7841C1137.06 16.5047 1136.92 16.1686 1136.92 15.7756C1136.92 15.3873 1137.06 15.0559 1137.34 14.7812C1137.62 14.5019 1137.95 14.3622 1138.34 14.3622C1138.73 14.3622 1139.06 14.5019 1139.34 14.7812C1139.62 15.0559 1139.76 15.3873 1139.76 15.7756C1139.76 16.036 1139.7 16.2751 1139.56 16.4929C1139.44 16.706 1139.27 16.8764 1139.05 17.0043C1138.84 17.1321 1138.6 17.196 1138.34 17.196ZM1138.34 9.90909C1137.95 9.90909 1137.62 9.77178 1137.34 9.49716C1137.06 9.2178 1136.92 8.88163 1136.92 8.48864C1136.92 8.10038 1137.06 7.76894 1137.34 7.49432C1137.62 7.21496 1137.95 7.07528 1138.34 7.07528C1138.73 7.07528 1139.06 7.21496 1139.34 7.49432C1139.62 7.76894 1139.76 8.10038 1139.76 8.48864C1139.76 8.74905 1139.7 8.98816 1139.56 9.20597C1139.44 9.41903 1139.27 9.58949 1139.05 9.71733C1138.84 9.84517 1138.6 9.90909 1138.34 9.90909ZM1152.67 19.1989C1151.78 19.1989 1150.98 19.0284 1150.27 18.6875C1149.57 18.3419 1149 17.8684 1148.58 17.267C1148.16 16.6657 1147.94 15.9792 1147.91 15.2074H1150.04C1150.09 15.8324 1150.37 16.3461 1150.87 16.7486C1151.37 17.151 1151.97 17.3523 1152.67 17.3523C1153.23 17.3523 1153.73 17.2244 1154.16 16.9688C1154.59 16.7083 1154.93 16.3509 1155.18 15.8963C1155.43 15.4418 1155.56 14.9233 1155.56 14.3409C1155.56 13.7491 1155.43 13.2211 1155.17 12.7571C1154.92 12.2931 1154.56 11.9285 1154.11 11.6634C1153.67 11.3982 1153.16 11.2633 1152.58 11.2585C1152.14 11.2585 1151.7 11.3343 1151.25 11.4858C1150.81 11.6373 1150.45 11.8362 1150.17 12.0824L1148.16 11.7841L1148.98 4.45455H1156.98V6.33665H1150.81L1150.34 10.4062H1150.43C1150.71 10.1316 1151.09 9.90199 1151.56 9.71733C1152.03 9.53267 1152.54 9.44034 1153.08 9.44034C1153.96 9.44034 1154.75 9.65104 1155.44 10.0724C1156.14 10.4938 1156.69 11.0691 1157.08 11.7983C1157.49 12.5227 1157.68 13.3561 1157.68 14.2983C1157.68 15.2405 1157.47 16.081 1157.04 16.8196C1156.61 17.5582 1156.02 18.1406 1155.27 18.5668C1154.51 18.9882 1153.65 19.1989 1152.67 19.1989ZM1167.87 16.2727V15.5057C1167.87 14.9564 1167.98 14.4545 1168.21 14C1168.44 13.5407 1168.78 13.1738 1169.22 12.8991C1169.66 12.6198 1170.2 12.4801 1170.83 12.4801C1171.47 12.4801 1172.01 12.6174 1172.45 12.892C1172.88 13.1667 1173.21 13.5336 1173.43 13.9929C1173.66 14.4522 1173.78 14.9564 1173.78 15.5057V16.2727C1173.78 16.822 1173.66 17.3262 1173.43 17.7855C1173.21 18.2401 1172.87 18.607 1172.43 18.8864C1172 19.161 1171.46 19.2983 1170.83 19.2983C1170.19 19.2983 1169.65 19.161 1169.21 18.8864C1168.77 18.607 1168.43 18.2401 1168.21 17.7855C1167.98 17.3262 1167.87 16.822 1167.87 16.2727ZM1169.52 15.5057V16.2727C1169.52 16.6799 1169.62 17.0492 1169.81 17.3807C1170.01 17.7121 1170.35 17.8778 1170.83 17.8778C1171.31 17.8778 1171.64 17.7121 1171.83 17.3807C1172.02 17.0492 1172.11 16.6799 1172.11 16.2727V15.5057C1172.11 15.0985 1172.02 14.7292 1171.84 14.3977C1171.66 14.0663 1171.32 13.9006 1170.83 13.9006C1170.35 13.9006 1170.02 14.0663 1169.82 14.3977C1169.62 14.7292 1169.52 15.0985 1169.52 15.5057ZM1160.55 7.94886V7.18182C1160.55 6.63258 1160.66 6.12831 1160.89 5.66903C1161.12 5.20975 1161.46 4.8428 1161.9 4.56818C1162.35 4.29356 1162.88 4.15625 1163.51 4.15625C1164.16 4.15625 1164.7 4.29356 1165.13 4.56818C1165.57 4.8428 1165.9 5.20975 1166.12 5.66903C1166.34 6.12831 1166.45 6.63258 1166.45 7.18182V7.94886C1166.45 8.49811 1166.34 9.00237 1166.11 9.46165C1165.89 9.91619 1165.56 10.2831 1165.12 10.5625C1164.68 10.8371 1164.15 10.9744 1163.51 10.9744C1162.87 10.9744 1162.33 10.8371 1161.89 10.5625C1161.45 10.2831 1161.12 9.91619 1160.89 9.46165C1160.66 9.00237 1160.55 8.49811 1160.55 7.94886ZM1162.21 7.18182V7.94886C1162.21 8.35606 1162.31 8.72538 1162.5 9.05682C1162.69 9.38826 1163.03 9.55398 1163.51 9.55398C1163.99 9.55398 1164.32 9.38826 1164.51 9.05682C1164.7 8.72538 1164.8 8.35606 1164.8 7.94886V7.18182C1164.8 6.77462 1164.71 6.4053 1164.52 6.07386C1164.34 5.74242 1164 5.5767 1163.51 5.5767C1163.04 5.5767 1162.7 5.74242 1162.5 6.07386C1162.31 6.4053 1162.21 6.77462 1162.21 7.18182ZM1161.23 19L1171.23 4.45455H1172.92L1162.92 19H1161.23Z" fill="white"/>
<path d="M166.881 6.34375V4.45455H178.138V6.34375H173.599V19H171.412V6.34375H166.881ZM180.625 19V4.45455H189.745V6.34375H182.82V10.7756H189.269V12.6577H182.82V17.1108H189.83V19H180.625ZM193.905 19H191.575L196.81 4.45455H199.345L204.58 19H202.25L198.138 7.09659H198.024L193.905 19ZM194.295 13.304H201.852V15.1506H194.295V13.304ZM206.68 4.45455H209.343L213.974 15.7614H214.145L218.775 4.45455H221.439V19H219.35V8.47443H219.216L214.926 18.9787H213.193L208.903 8.46733H208.768V19H206.68V4.45455ZM233.985 19.206C233.009 19.206 232.169 19.0284 231.463 18.6733C230.763 18.3182 230.223 17.8352 229.844 17.2244C229.465 16.6089 229.276 15.9129 229.276 15.1364C229.276 14.5445 229.399 14.0189 229.645 13.5597C229.891 13.0956 230.235 12.6671 230.675 12.2741C231.115 11.8812 231.624 11.4858 232.202 11.0881L234.546 9.43324C234.944 9.17282 235.254 8.8982 235.476 8.60938C235.699 8.31581 235.81 7.9536 235.81 7.52273C235.81 7.18182 235.663 6.85511 235.37 6.54261C235.076 6.23011 234.683 6.07386 234.191 6.07386C233.85 6.07386 233.549 6.15672 233.289 6.32244C233.033 6.48816 232.832 6.70123 232.685 6.96165C232.543 7.21733 232.472 7.48722 232.472 7.77131C232.472 8.10275 232.562 8.43655 232.742 8.77273C232.926 9.1089 233.163 9.45691 233.452 9.81676C233.741 10.1719 234.044 10.5412 234.361 10.9247L241.115 19H238.715L233.125 12.4304C232.657 11.8764 232.221 11.3556 231.819 10.8679C231.416 10.3755 231.089 9.87831 230.838 9.37642C230.592 8.86979 230.469 8.32292 230.469 7.7358C230.469 7.06818 230.621 6.47633 230.924 5.96023C231.231 5.43939 231.66 5.0322 232.209 4.73864C232.758 4.44508 233.402 4.2983 234.141 4.2983C234.889 4.2983 235.531 4.44508 236.066 4.73864C236.605 5.02746 237.02 5.41335 237.309 5.89631C237.602 6.37453 237.749 6.89773 237.749 7.46591C237.749 8.1572 237.576 8.76799 237.23 9.2983C236.89 9.82386 236.418 10.3068 235.817 10.7472L232.898 12.8991C232.33 13.3158 231.935 13.7277 231.712 14.1349C231.494 14.5374 231.385 14.8523 231.385 15.0795C231.385 15.4962 231.492 15.8821 231.705 16.2372C231.923 16.5923 232.226 16.8764 232.614 17.0895C233.007 17.3026 233.466 17.4091 233.992 17.4091C234.532 17.4091 235.057 17.2931 235.569 17.0611C236.085 16.8243 236.551 16.4858 236.968 16.0455C237.389 15.6051 237.723 15.0772 237.969 14.4616C238.215 13.8461 238.338 13.1572 238.338 12.3949H240.256C240.256 13.3324 240.15 14.1255 239.936 14.7741C239.723 15.4181 239.465 15.9437 239.162 16.3509C238.864 16.7533 238.582 17.0682 238.317 17.2955C238.232 17.3712 238.151 17.447 238.076 17.5227C238 17.5985 237.919 17.6742 237.834 17.75C237.342 18.2472 236.745 18.6141 236.044 18.8509C235.348 19.0876 234.662 19.206 233.985 19.206ZM252.951 19H248.243V4.45455H253.1C254.526 4.45455 255.75 4.74574 256.772 5.32812C257.795 5.90578 258.579 6.73674 259.123 7.82102C259.672 8.90057 259.947 10.1955 259.947 11.706C259.947 13.2211 259.67 14.5232 259.116 15.6122C258.567 16.7012 257.771 17.5393 256.73 18.1264C255.688 18.7088 254.429 19 252.951 19ZM250.437 17.0824H252.831C253.939 17.0824 254.859 16.8741 255.593 16.4574C256.327 16.036 256.877 15.4276 257.241 14.6321C257.606 13.8319 257.788 12.8565 257.788 11.706C257.788 10.5649 257.606 9.59659 257.241 8.80114C256.881 8.00568 256.344 7.40199 255.629 6.99006C254.914 6.57812 254.026 6.37216 252.966 6.37216H250.437V17.0824ZM262.676 19V4.45455H271.795V6.34375H264.871V10.7756H271.32V12.6577H264.871V17.1108H271.881V19H262.676ZM275.998 4.45455L280.047 16.3011H280.21L284.258 4.45455H286.63L281.396 19H278.86L273.626 4.45455H275.998ZM288.731 19V4.45455H297.85V6.34375H290.925V10.7756H297.374V12.6577H290.925V17.1108H297.935V19H288.731ZM300.782 19V4.45455H302.976V17.1108H309.567V19H300.782ZM324.139 11.7273C324.139 13.2803 323.855 14.6155 323.287 15.733C322.719 16.8456 321.94 17.7027 320.95 18.304C319.965 18.9006 318.846 19.1989 317.591 19.1989C316.331 19.1989 315.207 18.9006 314.217 18.304C313.232 17.7027 312.456 16.8433 311.888 15.7259C311.32 14.6084 311.036 13.2756 311.036 11.7273C311.036 10.1742 311.32 8.84138 311.888 7.72869C312.456 6.61127 313.232 5.75426 314.217 5.15767C315.207 4.55634 316.331 4.25568 317.591 4.25568C318.846 4.25568 319.965 4.55634 320.95 5.15767C321.94 5.75426 322.719 6.61127 323.287 7.72869C323.855 8.84138 324.139 10.1742 324.139 11.7273ZM321.966 11.7273C321.966 10.5436 321.774 9.54687 321.391 8.73722C321.012 7.92282 320.491 7.30729 319.828 6.89062C319.17 6.46922 318.424 6.25852 317.591 6.25852C316.753 6.25852 316.005 6.46922 315.347 6.89062C314.688 7.30729 314.168 7.92282 313.784 8.73722C313.405 9.54687 313.216 10.5436 313.216 11.7273C313.216 12.911 313.405 13.91 313.784 14.7244C314.168 15.5341 314.688 16.1496 315.347 16.571C316.005 16.9877 316.753 17.196 317.591 17.196C318.424 17.196 319.17 16.9877 319.828 16.571C320.491 16.1496 321.012 15.5341 321.391 14.7244C321.774 13.91 321.966 12.911 321.966 11.7273ZM326.875 19V4.45455H332.06C333.192 4.45455 334.129 4.66051 334.873 5.07244C335.616 5.48437 336.172 6.04782 336.542 6.76278C336.911 7.47301 337.096 8.2732 337.096 9.16335C337.096 10.0582 336.908 10.8632 336.534 11.5781C336.165 12.2884 335.606 12.8518 334.858 13.2685C334.115 13.6804 333.18 13.8864 332.053 13.8864H328.488V12.0256H331.854C332.569 12.0256 333.149 11.9025 333.594 11.6562C334.039 11.4053 334.366 11.0644 334.574 10.6335C334.783 10.2027 334.887 9.71259 334.887 9.16335C334.887 8.61411 334.783 8.12642 334.574 7.70028C334.366 7.27415 334.037 6.94034 333.587 6.69886C333.142 6.45739 332.555 6.33665 331.826 6.33665H329.07V19H326.875ZM339.668 4.45455H342.332L346.962 15.7614H347.133L351.763 4.45455H354.427V19H352.339V8.47443H352.204L347.914 18.9787H346.181L341.891 8.46733H341.756V19H339.668V4.45455ZM357.618 19V4.45455H366.737V6.34375H359.812V10.7756H366.261V12.6577H359.812V17.1108H366.822V19H357.618ZM381.408 4.45455V19H379.391L371.998 8.33239H371.863V19H369.668V4.45455H371.7L379.1 15.1364H379.235V4.45455H381.408ZM383.892 6.34375V4.45455H395.15V6.34375H390.611V19H388.424V6.34375H383.892ZM398.065 17.196C397.677 17.196 397.343 17.0587 397.064 16.7841C396.784 16.5047 396.645 16.1686 396.645 15.7756C396.645 15.3873 396.784 15.0559 397.064 14.7812C397.343 14.5019 397.677 14.3622 398.065 14.3622C398.453 14.3622 398.787 14.5019 399.066 14.7812C399.346 15.0559 399.485 15.3873 399.485 15.7756C399.485 16.036 399.419 16.2751 399.287 16.4929C399.159 16.706 398.988 16.8764 398.775 17.0043C398.562 17.1321 398.325 17.196 398.065 17.196ZM398.065 9.90909C397.677 9.90909 397.343 9.77178 397.064 9.49716C396.784 9.2178 396.645 8.88163 396.645 8.48864C396.645 8.10038 396.784 7.76894 397.064 7.49432C397.343 7.21496 397.677 7.07528 398.065 7.07528C398.453 7.07528 398.787 7.21496 399.066 7.49432C399.346 7.76894 399.485 8.10038 399.485 8.48864C399.485 8.74905 399.419 8.98816 399.287 9.20597C399.159 9.41903 398.988 9.58949 398.775 9.71733C398.562 9.84517 398.325 9.90909 398.065 9.90909ZM412.396 19.1989C411.505 19.1989 410.705 19.0284 409.995 18.6875C409.29 18.3419 408.726 17.8684 408.305 17.267C407.883 16.6657 407.658 15.9792 407.63 15.2074H409.761C409.813 15.8324 410.09 16.3461 410.592 16.7486C411.094 17.151 411.695 17.3523 412.396 17.3523C412.954 17.3523 413.449 17.2244 413.88 16.9688C414.316 16.7083 414.656 16.3509 414.903 15.8963C415.154 15.4418 415.279 14.9233 415.279 14.3409C415.279 13.7491 415.151 13.2211 414.896 12.7571C414.64 12.2931 414.287 11.9285 413.837 11.6634C413.392 11.3982 412.881 11.2633 412.303 11.2585C411.863 11.2585 411.42 11.3343 410.975 11.4858C410.53 11.6373 410.17 11.8362 409.896 12.0824L407.886 11.7841L408.702 4.45455H416.7V6.33665H410.528L410.066 10.4062H410.151C410.435 10.1316 410.812 9.90199 411.281 9.71733C411.754 9.53267 412.261 9.44034 412.8 9.44034C413.686 9.44034 414.474 9.65104 415.165 10.0724C415.862 10.4938 416.408 11.0691 416.806 11.7983C417.209 12.5227 417.407 13.3561 417.403 14.2983C417.407 15.2405 417.194 16.081 416.763 16.8196C416.337 17.5582 415.746 18.1406 414.988 18.5668C414.235 18.9882 413.371 19.1989 412.396 19.1989ZM427.589 16.2727V15.5057C427.589 14.9564 427.703 14.4545 427.93 14C428.162 13.5407 428.498 13.1738 428.939 12.8991C429.384 12.6198 429.921 12.4801 430.551 12.4801C431.195 12.4801 431.734 12.6174 432.17 12.892C432.606 13.1667 432.935 13.5336 433.157 13.9929C433.385 14.4522 433.498 14.9564 433.498 15.5057V16.2727C433.498 16.822 433.385 17.3262 433.157 17.7855C432.93 18.2401 432.596 18.607 432.156 18.8864C431.72 19.161 431.185 19.2983 430.551 19.2983C429.912 19.2983 429.372 19.161 428.931 18.8864C428.491 18.607 428.157 18.2401 427.93 17.7855C427.703 17.3262 427.589 16.822 427.589 16.2727ZM429.244 15.5057V16.2727C429.244 16.6799 429.341 17.0492 429.535 17.3807C429.729 17.7121 430.068 17.8778 430.551 17.8778C431.029 17.8778 431.363 17.7121 431.552 17.3807C431.742 17.0492 431.836 16.6799 431.836 16.2727V15.5057C431.836 15.0985 431.744 14.7292 431.559 14.3977C431.379 14.0663 431.043 13.9006 430.551 13.9006C430.077 13.9006 429.741 14.0663 429.542 14.3977C429.343 14.7292 429.244 15.0985 429.244 15.5057ZM420.274 7.94886V7.18182C420.274 6.63258 420.387 6.12831 420.615 5.66903C420.847 5.20975 421.183 4.8428 421.623 4.56818C422.068 4.29356 422.606 4.15625 423.235 4.15625C423.879 4.15625 424.419 4.29356 424.855 4.56818C425.29 4.8428 425.619 5.20975 425.842 5.66903C426.065 6.12831 426.176 6.63258 426.176 7.18182V7.94886C426.176 8.49811 426.062 9.00237 425.835 9.46165C425.612 9.91619 425.281 10.2831 424.841 10.5625C424.405 10.8371 423.87 10.9744 423.235 10.9744C422.592 10.9744 422.049 10.8371 421.609 10.5625C421.173 10.2831 420.842 9.91619 420.615 9.46165C420.387 9.00237 420.274 8.49811 420.274 7.94886ZM421.936 7.18182V7.94886C421.936 8.35606 422.03 8.72538 422.22 9.05682C422.414 9.38826 422.752 9.55398 423.235 9.55398C423.709 9.55398 424.04 9.38826 424.23 9.05682C424.424 8.72538 424.521 8.35606 424.521 7.94886V7.18182C424.521 6.77462 424.429 6.4053 424.244 6.07386C424.059 5.74242 423.723 5.5767 423.235 5.5767C422.762 5.5767 422.426 5.74242 422.227 6.07386C422.033 6.4053 421.936 6.77462 421.936 7.18182ZM420.949 19L430.949 4.45455H432.646L422.646 19H420.949Z" fill="white"/>
<path d="M1177.6 481V466.455H1179.79V479.111H1186.38V481H1177.6ZM1191.08 466.455V481H1188.89V466.455H1191.08ZM1199.63 476.284H1201.78L1203.3 478.266L1204.02 479.146L1206.44 482.307H1204.2L1202.58 480.197L1202.03 479.43L1199.63 476.284ZM1206.91 473.727C1206.91 475.28 1206.63 476.616 1206.06 477.733C1205.49 478.846 1204.71 479.703 1203.72 480.304C1202.74 480.901 1201.62 481.199 1200.36 481.199C1199.1 481.199 1197.98 480.901 1196.99 480.304C1196.01 479.703 1195.23 478.843 1194.66 477.726C1194.09 476.608 1193.81 475.276 1193.81 473.727C1193.81 472.174 1194.09 470.841 1194.66 469.729C1195.23 468.611 1196.01 467.754 1196.99 467.158C1197.98 466.556 1199.1 466.256 1200.36 466.256C1201.62 466.256 1202.74 466.556 1203.72 467.158C1204.71 467.754 1205.49 468.611 1206.06 469.729C1206.63 470.841 1206.91 472.174 1206.91 473.727ZM1204.74 473.727C1204.74 472.544 1204.55 471.547 1204.16 470.737C1203.79 469.923 1203.26 469.307 1202.6 468.891C1201.94 468.469 1201.2 468.259 1200.36 468.259C1199.53 468.259 1198.78 468.469 1198.12 468.891C1197.46 469.307 1196.94 469.923 1196.56 470.737C1196.18 471.547 1195.99 472.544 1195.99 473.727C1195.99 474.911 1196.18 475.91 1196.56 476.724C1196.94 477.534 1197.46 478.15 1198.12 478.571C1198.78 478.988 1199.53 479.196 1200.36 479.196C1201.2 479.196 1201.94 478.988 1202.6 478.571C1203.26 478.15 1203.79 477.534 1204.16 476.724C1204.55 475.91 1204.74 474.911 1204.74 473.727ZM1219 466.455H1221.2V476.021C1221.2 477.039 1220.97 477.941 1220.49 478.727C1220.01 479.509 1219.34 480.124 1218.47 480.574C1217.6 481.019 1216.59 481.241 1215.42 481.241C1214.26 481.241 1213.25 481.019 1212.38 480.574C1211.52 480.124 1210.84 479.509 1210.37 478.727C1209.89 477.941 1209.65 477.039 1209.65 476.021V466.455H1211.84V475.844C1211.84 476.502 1211.99 477.087 1212.28 477.598C1212.57 478.109 1212.98 478.512 1213.52 478.805C1214.05 479.094 1214.69 479.239 1215.42 479.239C1216.16 479.239 1216.8 479.094 1217.33 478.805C1217.87 478.512 1218.29 478.109 1218.57 477.598C1218.86 477.087 1219 476.502 1219 475.844V466.455ZM1226.59 466.455V481H1224.39V466.455H1226.59ZM1234.49 481H1229.79V466.455H1234.64C1236.07 466.455 1237.29 466.746 1238.32 467.328C1239.34 467.906 1240.12 468.737 1240.67 469.821C1241.22 470.901 1241.49 472.196 1241.49 473.706C1241.49 475.221 1241.21 476.523 1240.66 477.612C1240.11 478.701 1239.31 479.539 1238.27 480.126C1237.23 480.709 1235.97 481 1234.49 481ZM1231.98 479.082H1234.37C1235.48 479.082 1236.4 478.874 1237.14 478.457C1237.87 478.036 1238.42 477.428 1238.78 476.632C1239.15 475.832 1239.33 474.857 1239.33 473.706C1239.33 472.565 1239.15 471.597 1238.78 470.801C1238.42 470.006 1237.89 469.402 1237.17 468.99C1236.46 468.578 1235.57 468.372 1234.51 468.372H1231.98V479.082ZM1246.41 466.455V481H1244.22V466.455H1246.41ZM1248.89 468.344V466.455H1260.15V468.344H1255.61V481H1253.42V468.344H1248.89ZM1261.51 466.455H1264.01L1267.81 473.067H1267.96L1271.76 466.455H1274.26L1268.98 475.29V481H1266.79V475.29L1261.51 466.455ZM1276.31 479.196C1275.92 479.196 1275.59 479.059 1275.31 478.784C1275.03 478.505 1274.89 478.169 1274.89 477.776C1274.89 477.387 1275.03 477.056 1275.31 476.781C1275.59 476.502 1275.92 476.362 1276.31 476.362C1276.7 476.362 1277.03 476.502 1277.31 476.781C1277.59 477.056 1277.73 477.387 1277.73 477.776C1277.73 478.036 1277.66 478.275 1277.53 478.493C1277.4 478.706 1277.23 478.876 1277.02 479.004C1276.8 479.132 1276.57 479.196 1276.31 479.196ZM1276.31 471.909C1275.92 471.909 1275.59 471.772 1275.31 471.497C1275.03 471.218 1274.89 470.882 1274.89 470.489C1274.89 470.1 1275.03 469.769 1275.31 469.494C1275.59 469.215 1275.92 469.075 1276.31 469.075C1276.7 469.075 1277.03 469.215 1277.31 469.494C1277.59 469.769 1277.73 470.1 1277.73 470.489C1277.73 470.749 1277.66 470.988 1277.53 471.206C1277.4 471.419 1277.23 471.589 1277.02 471.717C1276.8 471.845 1276.57 471.909 1276.31 471.909ZM1285.53 478.159V476.384L1291.82 466.455H1293.22V469.068H1292.33L1287.83 476.185V476.298H1296.45V478.159H1285.53ZM1292.43 481V477.619L1292.44 476.81V466.455H1294.52V481H1292.43ZM1303.99 481.241C1302.86 481.237 1301.91 480.941 1301.11 480.354C1300.31 479.767 1299.71 478.912 1299.28 477.79C1298.86 476.668 1298.65 475.316 1298.65 473.734C1298.65 472.158 1298.86 470.811 1299.28 469.693C1299.71 468.576 1300.32 467.723 1301.12 467.136C1301.92 466.549 1302.87 466.256 1303.99 466.256C1305.1 466.256 1306.05 466.552 1306.85 467.143C1307.64 467.731 1308.25 468.583 1308.67 469.7C1309.1 470.813 1309.31 472.158 1309.31 473.734C1309.31 475.321 1309.1 476.675 1308.68 477.797C1308.26 478.914 1307.65 479.769 1306.86 480.361C1306.06 480.948 1305.1 481.241 1303.99 481.241ZM1303.99 479.345C1304.97 479.345 1305.74 478.865 1306.29 477.903C1306.85 476.942 1307.13 475.553 1307.13 473.734C1307.13 472.527 1307 471.507 1306.75 470.673C1306.5 469.835 1306.14 469.201 1305.66 468.77C1305.19 468.334 1304.64 468.116 1303.99 468.116C1303.01 468.116 1302.24 468.599 1301.68 469.565C1301.12 470.531 1300.84 471.921 1300.83 473.734C1300.83 474.946 1300.96 475.972 1301.21 476.81C1301.47 477.643 1301.83 478.275 1302.3 478.706C1302.76 479.132 1303.33 479.345 1303.99 479.345ZM1319.43 478.273V477.506C1319.43 476.956 1319.54 476.455 1319.77 476C1320 475.541 1320.33 475.174 1320.77 474.899C1321.22 474.62 1321.76 474.48 1322.39 474.48C1323.03 474.48 1323.57 474.617 1324.01 474.892C1324.44 475.167 1324.77 475.534 1324.99 475.993C1325.22 476.452 1325.33 476.956 1325.33 477.506V478.273C1325.33 478.822 1325.22 479.326 1324.99 479.786C1324.77 480.24 1324.43 480.607 1323.99 480.886C1323.56 481.161 1323.02 481.298 1322.39 481.298C1321.75 481.298 1321.21 481.161 1320.77 480.886C1320.33 480.607 1319.99 480.24 1319.77 479.786C1319.54 479.326 1319.43 478.822 1319.43 478.273ZM1321.08 477.506V478.273C1321.08 478.68 1321.18 479.049 1321.37 479.381C1321.57 479.712 1321.9 479.878 1322.39 479.878C1322.86 479.878 1323.2 479.712 1323.39 479.381C1323.58 479.049 1323.67 478.68 1323.67 478.273V477.506C1323.67 477.098 1323.58 476.729 1323.4 476.398C1323.22 476.066 1322.88 475.901 1322.39 475.901C1321.91 475.901 1321.58 476.066 1321.38 476.398C1321.18 476.729 1321.08 477.098 1321.08 477.506ZM1312.11 469.949V469.182C1312.11 468.633 1312.22 468.128 1312.45 467.669C1312.68 467.21 1313.02 466.843 1313.46 466.568C1313.9 466.294 1314.44 466.156 1315.07 466.156C1315.72 466.156 1316.26 466.294 1316.69 466.568C1317.13 466.843 1317.46 467.21 1317.68 467.669C1317.9 468.128 1318.01 468.633 1318.01 469.182V469.949C1318.01 470.498 1317.9 471.002 1317.67 471.462C1317.45 471.916 1317.12 472.283 1316.68 472.562C1316.24 472.837 1315.71 472.974 1315.07 472.974C1314.43 472.974 1313.89 472.837 1313.44 472.562C1313.01 472.283 1312.68 471.916 1312.45 471.462C1312.22 471.002 1312.11 470.498 1312.11 469.949ZM1313.77 469.182V469.949C1313.77 470.356 1313.87 470.725 1314.06 471.057C1314.25 471.388 1314.59 471.554 1315.07 471.554C1315.54 471.554 1315.88 471.388 1316.07 471.057C1316.26 470.725 1316.36 470.356 1316.36 469.949V469.182C1316.36 468.775 1316.26 468.405 1316.08 468.074C1315.9 467.742 1315.56 467.577 1315.07 467.577C1314.6 467.577 1314.26 467.742 1314.06 468.074C1313.87 468.405 1313.77 468.775 1313.77 469.182ZM1312.78 481L1322.78 466.455H1324.48L1314.48 481H1312.78Z" fill="white"/>
<path d="M9.53125 276.276C9.45549 275.603 9.14299 275.082 8.59375 274.713C8.04451 274.339 7.35322 274.152 6.51989 274.152C5.9233 274.152 5.4072 274.247 4.97159 274.436C4.53598 274.621 4.19744 274.876 3.95597 275.203C3.71922 275.525 3.60085 275.892 3.60085 276.304C3.60085 276.65 3.68134 276.948 3.84233 277.199C4.00805 277.45 4.22349 277.661 4.48864 277.831C4.75852 277.997 5.04735 278.136 5.35511 278.25C5.66288 278.359 5.95881 278.449 6.2429 278.52L7.66335 278.889C8.12737 279.003 8.60322 279.157 9.09091 279.351C9.5786 279.545 10.0308 279.801 10.4474 280.118C10.8641 280.435 11.2003 280.828 11.456 281.297C11.7164 281.766 11.8466 282.327 11.8466 282.98C11.8466 283.804 11.6335 284.536 11.2074 285.175C10.786 285.814 10.1728 286.318 9.3679 286.688C8.56771 287.057 7.59943 287.241 6.46307 287.241C5.37405 287.241 4.43182 287.069 3.63636 286.723C2.84091 286.377 2.21828 285.887 1.76847 285.253C1.31866 284.614 1.07008 283.856 1.02273 282.98H3.22443C3.26705 283.506 3.4375 283.944 3.7358 284.294C4.03883 284.64 4.42472 284.898 4.89347 285.068C5.36695 285.234 5.88542 285.317 6.44886 285.317C7.06913 285.317 7.62074 285.22 8.10369 285.026C8.59138 284.827 8.97491 284.552 9.25426 284.202C9.53362 283.847 9.6733 283.432 9.6733 282.959C9.6733 282.528 9.55019 282.175 9.30398 281.901C9.0625 281.626 8.73343 281.399 8.31676 281.219C7.90483 281.039 7.43845 280.88 6.91761 280.743L5.19886 280.274C4.03409 279.957 3.1108 279.491 2.42898 278.875C1.75189 278.259 1.41335 277.445 1.41335 276.432C1.41335 275.594 1.64063 274.862 2.09517 274.237C2.54972 273.612 3.16525 273.127 3.94176 272.781C4.71828 272.431 5.59422 272.256 6.5696 272.256C7.55445 272.256 8.4233 272.429 9.17614 272.774C9.93371 273.12 10.5303 273.596 10.9659 274.202C11.4015 274.803 11.6288 275.494 11.6477 276.276H9.53125ZM13.7518 274.344V272.455H25.0089V274.344H20.4705V287H18.283V274.344H13.7518ZM27.0064 287H24.6768L29.9112 272.455H32.4467L37.6811 287H35.3516L31.2393 275.097H31.1257L27.0064 287ZM27.397 281.304H34.9538V283.151H27.397V281.304ZM39.7816 287V272.455H41.9762V279.401H42.1538L48.2546 272.455H51.0174L45.1509 279.003L51.0387 287H48.3967L43.695 280.501L41.9762 282.476V287H39.7816ZM55.2575 272.455V287H53.0629V272.455H55.2575ZM70.1935 272.455V287H68.1765L60.783 276.332H60.6481V287H58.4535V272.455H60.4847L67.8853 283.136H68.0202V272.455H70.1935ZM83.2386 277.05C83.1013 276.619 82.9167 276.233 82.6847 275.892C82.4574 275.546 82.1851 275.253 81.8679 275.011C81.5507 274.765 81.1884 274.578 80.7812 274.45C80.3788 274.322 79.9361 274.259 79.4531 274.259C78.634 274.259 77.8954 274.469 77.2372 274.891C76.5791 275.312 76.0582 275.93 75.6747 276.744C75.2959 277.554 75.1065 278.546 75.1065 279.72C75.1065 280.899 75.2983 281.896 75.6818 282.71C76.0653 283.525 76.5909 284.143 77.2585 284.564C77.9261 284.985 78.6861 285.196 79.5384 285.196C80.3291 285.196 81.018 285.035 81.6051 284.713C82.197 284.391 82.6539 283.937 82.9759 283.349C83.3026 282.758 83.4659 282.062 83.4659 281.261L84.0341 281.368H79.8722V279.557H85.5895V281.212C85.5895 282.433 85.3291 283.494 84.8082 284.393C84.2921 285.288 83.5772 285.98 82.6634 286.467C81.7543 286.955 80.7126 287.199 79.5384 287.199C78.2221 287.199 77.0668 286.896 76.0724 286.29C75.0829 285.684 74.3111 284.824 73.7571 283.712C73.2031 282.594 72.9261 281.268 72.9261 279.734C72.9261 278.574 73.0871 277.533 73.4091 276.609C73.7311 275.686 74.1832 274.902 74.7656 274.259C75.3527 273.61 76.0417 273.115 76.8324 272.774C77.6278 272.429 78.4967 272.256 79.4389 272.256C80.2249 272.256 80.9564 272.372 81.6335 272.604C82.3153 272.836 82.9214 273.165 83.4517 273.591C83.9867 274.017 84.4295 274.524 84.7798 275.111C85.1302 275.693 85.367 276.339 85.4901 277.05H83.2386ZM93.6683 287V272.455H98.853C99.9799 272.455 100.915 272.649 101.658 273.037C102.406 273.425 102.965 273.963 103.335 274.649C103.704 275.331 103.888 276.119 103.888 277.014C103.888 277.904 103.701 278.688 103.327 279.365C102.958 280.037 102.399 280.561 101.651 280.935C100.908 281.309 99.9728 281.496 98.8459 281.496H94.9183V279.607H98.647C99.3572 279.607 99.9349 279.505 100.38 279.301C100.83 279.098 101.159 278.802 101.367 278.413C101.576 278.025 101.68 277.559 101.68 277.014C101.68 276.465 101.573 275.989 101.36 275.587C101.152 275.184 100.823 274.876 100.373 274.663C99.9278 274.446 99.343 274.337 98.6186 274.337H95.8629V287H93.6683ZM100.849 280.438L104.442 287H101.942L98.4197 280.438H100.849ZM106.559 287V272.455H115.678V274.344H108.754V278.776H115.202V280.658H108.754V285.111H115.763V287H106.559ZM121.458 287L117.424 272.455H119.732L122.566 283.719H122.701L125.648 272.455H127.935L130.882 283.726H131.017L133.844 272.455H136.159L132.118 287H129.909L126.848 276.105H126.735L123.674 287H121.458ZM138.139 287H135.81L141.044 272.455H143.58L148.814 287H146.484L142.372 275.097H142.259L138.139 287ZM138.53 281.304H146.087V283.151H138.53V281.304ZM150.914 287V272.455H156.099C157.226 272.455 158.161 272.649 158.904 273.037C159.653 273.425 160.211 273.963 160.581 274.649C160.95 275.331 161.135 276.119 161.135 277.014C161.135 277.904 160.948 278.688 160.574 279.365C160.204 280.037 159.645 280.561 158.897 280.935C158.154 281.309 157.219 281.496 156.092 281.496H152.164V279.607H155.893C156.603 279.607 157.181 279.505 157.626 279.301C158.076 279.098 158.405 278.802 158.613 278.413C158.822 278.025 158.926 277.559 158.926 277.014C158.926 276.465 158.819 275.989 158.606 275.587C158.398 275.184 158.069 274.876 157.619 274.663C157.174 274.446 156.589 274.337 155.865 274.337H153.109V287H150.914ZM158.095 280.438L161.689 287H159.189L155.666 280.438H158.095ZM168.514 287H163.805V272.455H168.663C170.088 272.455 171.312 272.746 172.335 273.328C173.358 273.906 174.141 274.737 174.686 275.821C175.235 276.901 175.51 278.196 175.51 279.706C175.51 281.221 175.233 282.523 174.679 283.612C174.129 284.701 173.334 285.539 172.292 286.126C171.251 286.709 169.991 287 168.514 287ZM166 285.082H168.393C169.501 285.082 170.422 284.874 171.156 284.457C171.89 284.036 172.439 283.428 172.804 282.632C173.168 281.832 173.35 280.857 173.35 279.706C173.35 278.565 173.168 277.597 172.804 276.801C172.444 276.006 171.906 275.402 171.191 274.99C170.476 274.578 169.589 274.372 168.528 274.372H166V285.082ZM186.172 276.276C186.096 275.603 185.784 275.082 185.234 274.713C184.685 274.339 183.994 274.152 183.161 274.152C182.564 274.152 182.048 274.247 181.612 274.436C181.177 274.621 180.838 274.876 180.597 275.203C180.36 275.525 180.241 275.892 180.241 276.304C180.241 276.65 180.322 276.948 180.483 277.199C180.649 277.45 180.864 277.661 181.129 277.831C181.399 277.997 181.688 278.136 181.996 278.25C182.304 278.359 182.599 278.449 182.884 278.52L184.304 278.889C184.768 279.003 185.244 279.157 185.732 279.351C186.219 279.545 186.671 279.801 187.088 280.118C187.505 280.435 187.841 280.828 188.097 281.297C188.357 281.766 188.487 282.327 188.487 282.98C188.487 283.804 188.274 284.536 187.848 285.175C187.427 285.814 186.813 286.318 186.009 286.688C185.208 287.057 184.24 287.241 183.104 287.241C182.015 287.241 181.072 287.069 180.277 286.723C179.482 286.377 178.859 285.887 178.409 285.253C177.959 284.614 177.711 283.856 177.663 282.98H179.865C179.908 283.506 180.078 283.944 180.376 284.294C180.679 284.64 181.065 284.898 181.534 285.068C182.008 285.234 182.526 285.317 183.089 285.317C183.71 285.317 184.261 285.22 184.744 285.026C185.232 284.827 185.616 284.552 185.895 284.202C186.174 283.847 186.314 283.432 186.314 282.959C186.314 282.528 186.191 282.175 185.945 281.901C185.703 281.626 185.374 281.399 184.957 281.219C184.545 281.039 184.079 280.88 183.558 280.743L181.839 280.274C180.675 279.957 179.751 279.491 179.07 278.875C178.393 278.259 178.054 277.445 178.054 276.432C178.054 275.594 178.281 274.862 178.736 274.237C179.19 273.612 179.806 273.127 180.582 272.781C181.359 272.431 182.235 272.256 183.21 272.256C184.195 272.256 185.064 272.429 185.817 272.774C186.574 273.12 187.171 273.596 187.607 274.202C188.042 274.803 188.269 275.494 188.288 276.276H186.172ZM192.338 285.196C191.95 285.196 191.616 285.059 191.337 284.784C191.058 284.505 190.918 284.169 190.918 283.776C190.918 283.387 191.058 283.056 191.337 282.781C191.616 282.502 191.95 282.362 192.338 282.362C192.727 282.362 193.06 282.502 193.34 282.781C193.619 283.056 193.759 283.387 193.759 283.776C193.759 284.036 193.693 284.275 193.56 284.493C193.432 284.706 193.262 284.876 193.049 285.004C192.836 285.132 192.599 285.196 192.338 285.196ZM192.338 277.909C191.95 277.909 191.616 277.772 191.337 277.497C191.058 277.218 190.918 276.882 190.918 276.489C190.918 276.1 191.058 275.769 191.337 275.494C191.616 275.215 191.95 275.075 192.338 275.075C192.727 275.075 193.06 275.215 193.34 275.494C193.619 275.769 193.759 276.1 193.759 276.489C193.759 276.749 193.693 276.988 193.56 277.206C193.432 277.419 193.262 277.589 193.049 277.717C192.836 277.845 192.599 277.909 192.338 277.909ZM201.562 284.159V282.384L207.848 272.455H209.247V275.068H208.359L203.864 282.185V282.298H212.479V284.159H201.562ZM208.459 287V283.619L208.473 282.81V272.455H210.554V287H208.459ZM220.018 287.241C218.896 287.237 217.937 286.941 217.141 286.354C216.346 285.767 215.737 284.912 215.316 283.79C214.895 282.668 214.684 281.316 214.684 279.734C214.684 278.158 214.895 276.811 215.316 275.693C215.742 274.576 216.353 273.723 217.148 273.136C217.949 272.549 218.905 272.256 220.018 272.256C221.13 272.256 222.085 272.552 222.88 273.143C223.675 273.731 224.284 274.583 224.705 275.7C225.131 276.813 225.344 278.158 225.344 279.734C225.344 281.321 225.134 282.675 224.712 283.797C224.291 284.914 223.683 285.769 222.887 286.361C222.092 286.948 221.135 287.241 220.018 287.241ZM220.018 285.345C221.003 285.345 221.772 284.865 222.326 283.903C222.885 282.942 223.164 281.553 223.164 279.734C223.164 278.527 223.036 277.507 222.781 276.673C222.53 275.835 222.167 275.201 221.694 274.77C221.225 274.334 220.666 274.116 220.018 274.116C219.038 274.116 218.268 274.599 217.71 275.565C217.151 276.531 216.869 277.921 216.864 279.734C216.864 280.946 216.99 281.972 217.241 282.81C217.496 283.643 217.859 284.275 218.327 284.706C218.796 285.132 219.36 285.345 220.018 285.345ZM235.456 284.273V283.506C235.456 282.956 235.57 282.455 235.797 282C236.029 281.541 236.365 281.174 236.806 280.899C237.251 280.62 237.788 280.48 238.418 280.48C239.062 280.48 239.602 280.617 240.037 280.892C240.473 281.167 240.802 281.534 241.025 281.993C241.252 282.452 241.365 282.956 241.365 283.506V284.273C241.365 284.822 241.252 285.326 241.025 285.786C240.797 286.24 240.463 286.607 240.023 286.886C239.587 287.161 239.052 287.298 238.418 287.298C237.779 287.298 237.239 287.161 236.799 286.886C236.358 286.607 236.025 286.24 235.797 285.786C235.57 285.326 235.456 284.822 235.456 284.273ZM237.111 283.506V284.273C237.111 284.68 237.208 285.049 237.402 285.381C237.596 285.712 237.935 285.878 238.418 285.878C238.896 285.878 239.23 285.712 239.419 285.381C239.609 285.049 239.703 284.68 239.703 284.273V283.506C239.703 283.098 239.611 282.729 239.426 282.398C239.247 282.066 238.91 281.901 238.418 281.901C237.944 281.901 237.608 282.066 237.409 282.398C237.211 282.729 237.111 283.098 237.111 283.506ZM228.141 275.949V275.182C228.141 274.633 228.255 274.128 228.482 273.669C228.714 273.21 229.05 272.843 229.49 272.568C229.935 272.294 230.473 272.156 231.103 272.156C231.747 272.156 232.286 272.294 232.722 272.568C233.158 272.843 233.487 273.21 233.709 273.669C233.932 274.128 234.043 274.633 234.043 275.182V275.949C234.043 276.498 233.929 277.002 233.702 277.462C233.48 277.916 233.148 278.283 232.708 278.562C232.272 278.837 231.737 278.974 231.103 278.974C230.459 278.974 229.917 278.837 229.476 278.562C229.041 278.283 228.709 277.916 228.482 277.462C228.255 277.002 228.141 276.498 228.141 275.949ZM229.803 275.182V275.949C229.803 276.356 229.898 276.725 230.087 277.057C230.281 277.388 230.62 277.554 231.103 277.554C231.576 277.554 231.908 277.388 232.097 277.057C232.291 276.725 232.388 276.356 232.388 275.949V275.182C232.388 274.775 232.296 274.405 232.111 274.074C231.926 273.742 231.59 273.577 231.103 273.577C230.629 273.577 230.293 273.742 230.094 274.074C229.9 274.405 229.803 274.775 229.803 275.182ZM228.816 287L238.816 272.455H240.513L230.513 287H228.816Z" fill="white"/>
<mask id="path-11-outside-1_490_73" maskUnits="userSpaceOnUse" x="497.281" y="52.1701" width="254.984" height="429.391" fill="black">
<rect fill="white" x="497.281" y="52.1701" width="254.984" height="429.391"/>
<path d="M627.906 469.996C590.38 448.981 559.617 417.709 539.221 379.843C518.825 341.976 509.639 299.082 512.74 256.184C515.841 213.286 531.1 172.159 556.73 137.619C582.36 103.08 617.3 76.5572 657.458 61.1576L738.503 272.503L627.906 469.996Z"/>
</mask>
<path d="M627.906 469.996C590.38 448.981 559.617 417.709 539.221 379.843C518.825 341.976 509.639 299.082 512.74 256.184C515.841 213.286 531.1 172.159 556.73 137.619C582.36 103.08 617.3 76.5572 657.458 61.1576L738.503 272.503L627.906 469.996Z" fill="url(#paint0_linear_490_73)"/>
<path d="M627.906 469.996C590.38 448.981 559.617 417.709 539.221 379.843C518.825 341.976 509.639 299.082 512.74 256.184C515.841 213.286 531.1 172.159 556.73 137.619C582.36 103.08 617.3 76.5572 657.458 61.1576L738.503 272.503L627.906 469.996Z" stroke="white" stroke-width="8" mask="url(#path-11-outside-1_490_73)"/>
<mask id="path-12-outside-2_490_73" maskUnits="userSpaceOnUse" x="650.659" y="41.9053" width="98.5563" height="235.795" fill="black">
<rect fill="white" x="650.659" y="41.9053" width="98.5563" height="235.795"/>
<path d="M657.322 61.2099C681.77 51.8168 707.662 46.7379 733.847 46.1991L738.503 272.503L657.322 61.2099Z"/>
</mask>
<path d="M657.322 61.2099C681.77 51.8168 707.662 46.7379 733.847 46.1991L738.503 272.503L657.322 61.2099Z" fill="url(#paint1_linear_490_73)"/>
<path d="M657.322 61.2099C681.77 51.8168 707.662 46.7379 733.847 46.1991L738.503 272.503L657.322 61.2099Z" stroke="white" stroke-width="8" mask="url(#path-12-outside-2_490_73)"/>
<mask id="path-13-outside-3_490_73" maskUnits="userSpaceOnUse" x="723.582" y="38.6004" width="97.5574" height="235.749" fill="black">
<rect fill="white" x="723.582" y="38.6004" width="97.5574" height="235.749"/>
<path d="M737.21 46.1549C760.403 46.0225 783.478 49.4553 805.627 56.3331L738.503 272.503L737.21 46.1549Z"/>
</mask>
<path d="M737.21 46.1549C760.403 46.0225 783.478 49.4553 805.627 56.3331L738.503 272.503L737.21 46.1549Z" fill="url(#paint2_linear_490_73)"/>
<path d="M737.21 46.1549C760.403 46.0225 783.478 49.4553 805.627 56.3331L738.503 272.503L737.21 46.1549Z" stroke="white" stroke-width="8" mask="url(#path-13-outside-3_490_73)"/>
<mask id="path-14-outside-4_490_73" maskUnits="userSpaceOnUse" x="722.227" y="45.884" width="244.942" height="232.553" fill="black">
<rect fill="white" x="722.227" y="45.884" width="244.942" height="232.553"/>
<path d="M811.813 58.3517C848.886 71.0428 882.029 93.1407 908 122.483C933.97 151.826 951.879 187.408 959.973 225.748L738.503 272.503L811.813 58.3517Z"/>
</mask>
<path d="M811.813 58.3517C848.886 71.0428 882.029 93.1407 908 122.483C933.97 151.826 951.879 187.408 959.973 225.748L738.503 272.503L811.813 58.3517Z" fill="url(#paint3_linear_490_73)"/>
<path d="M811.813 58.3517C848.886 71.0428 882.029 93.1407 908 122.483C933.97 151.826 951.879 187.408 959.973 225.748L738.503 272.503L811.813 58.3517Z" stroke="white" stroke-width="8" mask="url(#path-14-outside-4_490_73)"/>
<mask id="path-15-outside-5_490_73" maskUnits="userSpaceOnUse" x="616.61" y="225.603" width="362.886" height="282.83" fill="black">
<rect fill="white" x="616.61" y="225.603" width="362.886" height="282.83"/>
<path d="M960.925 230.507C968.82 272.324 964.767 315.519 949.232 355.138C933.696 394.756 907.306 429.192 873.09 454.495C838.875 479.799 798.219 494.944 755.788 498.194C713.356 501.443 670.869 492.666 633.199 472.868L738.503 272.503L960.925 230.507Z"/>
</mask>
<path d="M960.925 230.507C968.82 272.324 964.767 315.519 949.232 355.138C933.696 394.756 907.306 429.192 873.09 454.495C838.875 479.799 798.219 494.944 755.788 498.194C713.356 501.443 670.869 492.666 633.199 472.868L738.503 272.503L960.925 230.507Z" fill="url(#paint4_linear_490_73)"/>
<path d="M960.925 230.507C968.82 272.324 964.767 315.519 949.232 355.138C933.696 394.756 907.306 429.192 873.09 454.495C838.875 479.799 798.219 494.944 755.788 498.194C713.356 501.443 670.869 492.666 633.199 472.868L738.503 272.503L960.925 230.507Z" stroke="white" stroke-width="8" mask="url(#path-15-outside-5_490_73)"/>
<defs>
<linearGradient id="paint0_linear_490_73" x1="720" y1="70" x2="515.828" y2="476.25" gradientUnits="userSpaceOnUse">
<stop stop-color="#D114BA"/>
<stop offset="0.714839" stop-color="#5B0CCC"/>
</linearGradient>
<linearGradient id="paint1_linear_490_73" x1="665.5" y1="-46.5" x2="746.986" y2="209.315" gradientUnits="userSpaceOnUse">
<stop stop-color="#4567CF"/>
<stop offset="1" stop-color="#A55FFF"/>
</linearGradient>
<linearGradient id="paint2_linear_490_73" x1="771" y1="11" x2="759.871" y2="265.413" gradientUnits="userSpaceOnUse">
<stop stop-color="#FF7A00"/>
<stop offset="0.714839" stop-color="#FFCB14"/>
</linearGradient>
<linearGradient id="paint3_linear_490_73" x1="948" y1="57.5" x2="724.587" y2="332.828" gradientUnits="userSpaceOnUse">
<stop stop-color="#4567CF"/>
<stop offset="0.826427" stop-color="#50DFFF"/>
</linearGradient>
<linearGradient id="paint4_linear_490_73" x1="924" y1="142" x2="673.513" y2="617.549" gradientUnits="userSpaceOnUse">
<stop offset="0.173573" stop-color="#9BEE2D"/>
<stop offset="1" stop-color="#005537"/>
</linearGradient>
</defs>
</svg>
